<svg width="32" height="32" viewBox="0 0 32 32" fill="none" xmlns="http://www.w3.org/2000/svg">
<path d="M16 32C24.8366 32 32 24.8366 32 16C32 7.16344 24.8366 0 16 0C7.16344 0 0 7.16344 0 16C0 24.8366 7.16344 32 16 32Z" fill="#1C1514"/>
<path d="M21.25 23.75H10.75" stroke="#FAFAFA" stroke-width="1.5" stroke-linecap="round" stroke-linejoin="round"/>
<path d="M14.9927 20.5303C15.2856 20.8232 15.7604 20.8232 16.0533 20.5303L20.8263 15.7574C21.1192 15.4645 21.1192 14.9896 20.8263 14.6967C20.5334 14.4038 20.0585 14.4038 19.7656 14.6967L15.523 18.9393L11.2804 14.6967C10.9875 14.4038 10.5126 14.4038 10.2197 14.6967C9.92678 14.9896 9.92678 15.4645 10.2197 15.7574L14.9927 20.5303ZM14.773 8V20H16.273V8H14.773Z" fill="white"/>
</svg>
