<svg width="79" height="953" viewBox="0 0 79 953" fill="none" xmlns="http://www.w3.org/2000/svg">
<path d="M36.9371 952.058C37.5217 952.645 38.4714 952.647 39.0584 952.063L48.6244 942.537C49.2114 941.953 49.2134 941.003 48.6289 940.416C48.0443 939.829 47.0946 939.827 46.5076 940.411L38.0045 948.879L29.537 940.376C28.9525 939.789 28.0027 939.787 27.4157 940.371C26.8287 940.956 26.8267 941.905 27.4113 942.492L36.9371 952.058ZM38.5 -0.00315457L36.5 950.997L39.5 951.003L41.5 0.00315457L38.5 -0.00315457Z" fill="white"/>
<line x1="41" y1="22.5" x2="79" y2="22.5" stroke="white" stroke-width="3"/>
<line x1="2" y1="98.5" x2="40" y2="98.5" stroke="white" stroke-width="3"/>
<line x1="39" y1="182.5" x2="77" y2="182.5" stroke="white" stroke-width="3"/>
<line x1="2" y1="258.5" x2="40" y2="258.5" stroke="white" stroke-width="3"/>
<line x1="39" y1="342.5" x2="77" y2="342.5" stroke="white" stroke-width="3"/>
<line x1="2" y1="418.5" x2="40" y2="418.5" stroke="white" stroke-width="3"/>
<line x1="38" y1="502.5" x2="76" y2="502.5" stroke="white" stroke-width="3"/>
<line x1="1" y1="578.5" x2="39" y2="578.5" stroke="white" stroke-width="3"/>
<line x1="39" y1="662.5" x2="77" y2="662.5" stroke="white" stroke-width="3"/>
<line x1="1" y1="738.5" x2="39" y2="738.5" stroke="white" stroke-width="3"/>
<line x1="38" y1="822.5" x2="76" y2="822.5" stroke="white" stroke-width="3"/>
<line y1="898.5" x2="38" y2="898.5" stroke="white" stroke-width="3"/>
</svg>
