<svg width="14" height="21" viewBox="0 0 14 21" fill="none" xmlns="http://www.w3.org/2000/svg">
<path fill-rule="evenodd" clip-rule="evenodd" d="M14 7C14 8.31859 13.6354 9.55203 13.0015 10.605L7 21L0.998457 10.605C0.364589 9.55204 0 8.3186 0 7C0 3.13401 3.13401 0 7 0C10.866 0 14 3.13401 14 7ZM7 12.4444C10.0069 12.4444 12.4444 10.0069 12.4444 7C12.4444 3.99312 10.0069 1.55556 7 1.55556C3.99312 1.55556 1.55556 3.99312 1.55556 7C1.55556 10.0069 3.99312 12.4444 7 12.4444Z" fill="#1C1514"/>
<path d="M7.55556 6.77778C7.55556 7.20733 7.20733 7.55556 6.77778 7.55556C6.34823 7.55556 6 7.20733 6 6.77778C6 6.34823 6.34823 6 6.77778 6C7.20733 6 7.55556 6.34823 7.55556 6.77778Z" fill="#1C1514"/>
</svg>
