<svg width="21" height="19" viewBox="0 0 21 19" fill="none" xmlns="http://www.w3.org/2000/svg">
<path d="M18.1868 5.05604C18.1995 5.24985 18.1995 5.4437 18.1995 5.6375C18.1995 11.5489 14.0752 18.3602 6.53699 18.3602C4.21464 18.3602 2.05728 17.6264 0.242554 16.3528C0.572516 16.3943 0.889744 16.4082 1.2324 16.4082C3.14862 16.4082 4.91261 15.7022 6.32125 14.4977C4.51921 14.4562 3.00905 13.1687 2.48873 11.3966C2.74256 11.4381 2.99635 11.4658 3.26287 11.4658C3.63088 11.4658 3.99893 11.4104 4.34155 11.3136C2.46338 10.8982 1.05471 9.09851 1.05471 6.925V6.86964C1.60037 7.2019 2.23494 7.40956 2.90748 7.43721C1.80342 6.63424 1.0801 5.2637 1.0801 3.71315C1.0801 2.88252 1.2831 2.1211 1.63845 1.45658C3.65624 4.17001 6.68925 5.94202 10.0903 6.13587C10.0268 5.80361 9.98872 5.45755 9.98872 5.11144C9.98872 2.64717 11.8162 0.639801 14.0878 0.639801C15.268 0.639801 16.334 1.17972 17.0827 2.05189C18.0091 1.85809 18.8974 1.48428 19.6842 0.972061C19.3796 2.01039 18.7324 2.88256 17.8822 3.43629C18.7071 3.33943 19.5066 3.09018 20.2426 2.74411C19.6843 3.6301 18.9863 4.41918 18.1868 5.05604Z" fill="black"/>
</svg>
