<svg width="21" height="21" viewBox="0 0 21 21" fill="none" xmlns="http://www.w3.org/2000/svg">
<path d="M10.2448 5.37225C7.40708 5.37225 5.11818 7.66166 5.11818 10.5C5.11818 13.3383 7.40708 15.6277 10.2448 15.6277C13.0825 15.6277 15.3714 13.3383 15.3714 10.5C15.3714 7.66166 13.0825 5.37225 10.2448 5.37225ZM10.2448 13.8337C8.41098 13.8337 6.91182 12.3387 6.91182 10.5C6.91182 8.66133 8.40652 7.1663 10.2448 7.1663C12.0831 7.1663 13.5778 8.66133 13.5778 10.5C13.5778 12.3387 12.0786 13.8337 10.2448 13.8337ZM16.7769 5.1625C16.7769 5.82746 16.2415 6.35853 15.5811 6.35853C14.9163 6.35853 14.3854 5.82299 14.3854 5.1625C14.3854 4.50201 14.9208 3.96647 15.5811 3.96647C16.2415 3.96647 16.7769 4.50201 16.7769 5.1625ZM20.1723 6.37638C20.0965 4.77424 19.7306 3.35507 18.5572 2.18582C17.3882 1.01657 15.9693 0.650619 14.3675 0.570289C12.7167 0.47657 7.76848 0.47657 6.11762 0.570289C4.5203 0.646156 3.10145 1.0121 1.92799 2.18136C0.754545 3.35061 0.39314 4.76978 0.312827 6.37192C0.219129 8.02315 0.219129 12.9724 0.312827 14.6236C0.388678 16.2258 0.754545 17.6449 1.92799 18.8142C3.10145 19.9834 4.51583 20.3494 6.11762 20.4297C7.76848 20.5234 12.7167 20.5234 14.3675 20.4297C15.9693 20.3538 17.3882 19.9879 18.5572 18.8142C19.7261 17.6449 20.092 16.2258 20.1723 14.6236C20.266 12.9724 20.266 8.02761 20.1723 6.37638ZM18.0396 16.3953C17.6916 17.2701 17.0178 17.9439 16.1389 18.2965C14.8226 18.8186 11.6994 18.6981 10.2448 18.6981C8.79024 18.6981 5.66252 18.8142 4.35075 18.2965C3.47624 17.9484 2.80251 17.2745 2.45002 16.3953C1.92799 15.0788 2.04846 11.9549 2.04846 10.5C2.04846 9.04513 1.93246 5.91671 2.45002 4.60465C2.79804 3.72995 3.47177 3.05606 4.35075 2.7035C5.66698 2.18136 8.79024 2.30185 10.2448 2.30185C11.6994 2.30185 14.8271 2.18582 16.1389 2.7035C17.0134 3.0516 17.6871 3.72548 18.0396 4.60465C18.5616 5.92118 18.4411 9.04513 18.4411 10.5C18.4411 11.9549 18.5616 15.0833 18.0396 16.3953Z" fill="black"/>
</svg>
