<svg width="20" height="18" viewBox="0 0 20 18" fill="none" xmlns="http://www.w3.org/2000/svg">
<path d="M17.9442 4.55613C17.9569 4.74994 17.9569 4.94379 17.9569 5.13759C17.9569 11.049 13.8326 17.8603 6.29441 17.8603C3.97206 17.8603 1.8147 17.1265 -3.05176e-05 15.8529C0.329931 15.8944 0.647159 15.9083 0.989818 15.9083C2.90604 15.9083 4.67003 15.2023 6.07867 13.9978C4.27663 13.9563 2.76647 12.6688 2.24615 10.8967C2.49998 10.9382 2.75377 10.9659 3.02029 10.9659C3.3883 10.9659 3.75635 10.9105 4.09897 10.8137C2.2208 10.3983 0.812122 8.5986 0.812122 6.42509V6.36973C1.35779 6.70199 1.99236 6.90965 2.6649 6.9373C1.56084 6.13433 0.837511 4.76379 0.837511 3.21324C0.837511 2.38261 1.04052 1.62119 1.39587 0.956672C3.41366 3.6701 6.44667 5.44211 9.84767 5.63596C9.78423 5.3037 9.74614 4.95764 9.74614 4.61153C9.74614 2.14726 11.5736 0.139893 13.8452 0.139893C15.0254 0.139893 16.0914 0.67981 16.8401 1.55198C17.7665 1.35818 18.6548 0.984371 19.4416 0.472153C19.137 1.51048 18.4898 2.38265 17.6396 2.93638C18.4645 2.83952 19.264 2.59027 20 2.2442C19.4417 3.13019 18.7437 3.91927 17.9442 4.55613Z" fill="white"/>
</svg>
